<?xml version="1.0" standalone="no"?>
<!DOCTYPE svg PUBLIC "-//W3C//DTD SVG 20010904//EN"
 "http://www.w3.org/TR/2001/REC-SVG-20010904/DTD/svg10.dtd">
<svg version="1.0" xmlns="http://www.w3.org/2000/svg"
 width="600.000000pt" height="720.000000pt" viewBox="0 0 600.000000 720.000000"
 preserveAspectRatio="xMidYMid meet">

<g transform="translate(0.000000,720.000000) scale(0.100000,-0.100000)"
fill="#000000" stroke="none">
<path d="M2545 5984 c-942 -48 -1595 -208 -1595 -392 0 -141 344 -264 956
-341 366 -47 541 -55 1104 -55 575 -1 745 8 1149 59 749 95 1094 279 839 447
-188 124 -621 214 -1288 269 -129 10 -1019 20 -1165 13z m1010 -85 c626 -31
1161 -125 1369 -242 100 -56 100 -78 0 -134 -203 -114 -717 -206 -1354 -243
-239 -14 -883 -14 -1115 0 -634 38 -1148 130 -1349 243 -100 56 -100 78 0 134
339 190 1400 295 2449 242z"/>
<path d="M2580 5849 c-617 -22 -1091 -104 -1133 -196 -40 -89 269 -169 828
-215 216 -18 1144 -18 1350 0 390 34 644 79 755 134 125 63 83 120 -125 173
-207 53 -541 89 -973 105 -283 11 -397 11 -702 -1z m765 -79 c436 -20 782 -62
950 -117 l50 -16 -40 -14 c-367 -128 -1569 -168 -2315 -77 -138 16 -304 47
-383 71 -50 15 -51 15 -27 28 29 15 174 49 275 64 373 58 992 83 1490 61z"/>
<path d="M2375 5120 c-174 -28 -331 -96 -485 -210 -227 -169 -385 -448 -422
-747 l-12 -92 -85 -58 c-96 -65 -257 -215 -331 -308 -280 -352 -330 -816 -130
-1216 90 -179 262 -388 438 -531 566 -463 1456 -670 2267 -527 162 28 398 98
538 158 27 12 50 21 52 21 1 0 4 -47 7 -104 4 -90 9 -112 34 -163 20 -40 43
-67 72 -88 41 -28 50 -30 135 -30 83 0 97 3 146 30 59 33 111 87 141 149 58
122 65 278 16 374 -24 48 -25 53 -9 59 207 74 343 216 388 405 18 77 19 134 1
216 -12 61 -12 64 16 119 38 75 37 131 -1 209 -20 40 -33 88 -41 149 -14 110
-33 187 -71 287 l-30 77 22 34 c13 20 48 47 87 68 114 61 178 157 188 286 3
37 15 90 26 117 40 99 5 204 -91 270 -31 22 -41 35 -41 55 0 85 -256 325 -419
393 -43 17 -56 30 -82 75 -137 240 -384 427 -658 500 -84 23 -116 26 -256 26
-140 0 -172 -3 -255 -25 -112 -30 -223 -80 -310 -137 -34 -23 -63 -41 -65 -41
-2 0 -27 16 -56 36 -83 57 -210 113 -317 140 -110 28 -305 40 -407 24z m365
-95 c176 -41 331 -128 465 -260 82 -80 175 -201 175 -227 0 -5 -15 2 -33 16
-65 50 -158 73 -339 86 -252 18 -471 -13 -688 -99 -153 -60 -205 -91 -205
-120 0 -47 26 -48 122 -4 249 116 372 143 648 143 248 1 362 -23 448 -94 l29
-23 -149 -6 c-376 -14 -625 -101 -878 -307 -92 -76 -347 -338 -342 -353 2 -7
18 -22 37 -34 41 -29 102 -30 163 -4 l44 19 13 -37 c7 -20 41 -64 76 -98 104
-102 295 -181 518 -213 150 -22 402 -13 554 20 113 25 286 96 336 139 20 16
20 16 0 -16 -36 -59 -102 -101 -216 -138 -172 -56 -265 -68 -468 -62 -221 7
-378 39 -595 122 -109 41 -102 41 -118 4 -8 -19 -12 -37 -8 -40 12 -14 200
-78 311 -108 164 -44 293 -61 461 -61 173 0 281 16 437 66 193 62 299 163 304
293 1 21 9 49 18 61 l16 22 47 -31 c92 -63 228 -111 387 -138 132 -22 395 -22
520 1 158 28 303 78 373 128 l29 21 -7 -34 c-26 -128 -124 -205 -310 -246 -61
-13 -126 -18 -270 -17 -205 0 -283 11 -471 69 -85 27 -92 31 -159 102 -69 72
-98 86 -123 61 -7 -7 -12 -18 -12 -25 0 -8 43 -59 96 -116 110 -116 189 -217
231 -297 15 -30 36 -56 46 -58 23 -5 47 15 47 40 0 14 5 18 18 14 44 -14 118
-27 205 -36 137 -16 249 0 349 48 l77 37 21 -55 c50 -137 75 -287 48 -294 -7
-2 -47 -13 -88 -25 -395 -115 -541 -136 -940 -136 -327 1 -378 5 -1025 75
-559 61 -716 73 -850 67 -150 -7 -210 -20 -270 -58 -60 -38 -78 -80 -73 -169
5 -90 44 -163 142 -267 94 -100 170 -161 293 -237 232 -143 522 -247 863 -310
273 -50 780 -92 1033 -85 122 4 123 4 119 -18 -3 -17 -30 -31 -130 -71 -328
-130 -619 -184 -997 -184 -552 0 -1066 138 -1480 397 -539 338 -819 832 -741
1307 18 113 69 261 120 352 94 169 265 349 443 470 l100 68 7 71 c23 257 167
530 366 691 133 108 286 180 449 211 96 18 280 13 381 -10z m1204 10 c255 -45
464 -174 625 -388 24 -32 42 -60 39 -62 -2 -2 -35 1 -73 7 -102 15 -385 4
-530 -21 -66 -12 -200 -39 -298 -61 -98 -22 -184 -40 -191 -40 -6 0 -24 26
-39 58 -59 127 -216 322 -259 322 -34 0 -7 22 89 72 219 114 422 150 637 113z
m618 -529 c127 -25 233 -70 324 -138 l31 -23 -171 -1 c-243 -2 -434 -23 -765
-84 l-153 -28 -57 57 c-39 39 -76 64 -121 83 -39 16 -59 28 -50 32 51 18 452
95 575 109 84 10 320 6 387 -7z m-1125 -157 c104 -14 222 -62 269 -108 35 -34
84 -121 84 -149 0 -8 -25 0 -67 22 -278 139 -595 163 -885 66 -118 -40 -217
-91 -383 -200 -147 -96 -315 -185 -335 -178 -16 5 229 242 325 313 178 131
362 200 625 234 96 12 278 13 367 0z m1558 -109 c56 -22 125 -78 125 -102 0
-7 -43 -8 -137 -2 -76 5 -221 9 -323 8 -196 -1 -277 -10 -591 -67 l-177 -33
-5 56 c-2 30 0 58 5 61 16 10 451 79 568 89 188 17 209 18 345 15 108 -1 140
-6 190 -25z m-1850 -97 c-26 -62 -34 -94 -35 -139 -1 -161 127 -300 319 -344
73 -17 211 -8 280 18 l54 21 -29 -30 c-67 -70 -242 -142 -427 -176 -123 -22
-369 -22 -494 1 -262 47 -469 163 -498 278 -6 23 1 29 72 73 43 27 114 73 158
103 176 119 415 208 564 211 37 1 42 -1 36 -16z m421 -48 c99 -41 64 -195 -45
-195 -100 0 -145 121 -70 184 35 30 64 32 115 11z m1501 -43 c69 -6 88 -12
126 -38 59 -42 90 -106 77 -156 -30 -108 -265 -219 -520 -246 l-81 -8 8 25 c4
14 8 64 8 111 -1 72 -5 93 -27 136 -28 54 -132 158 -170 170 -22 7 -22 7 -3
16 21 8 440 1 582 -10z m-1175 -121 c-15 -21 -28 -35 -30 -31 -6 15 28 70 43
70 11 0 7 -11 -13 -39z m319 -80 c41 -41 41 -98 0 -143 -25 -28 -36 -33 -74
-33 -78 0 -127 73 -97 146 17 41 47 59 98 59 35 0 49 -6 73 -29z m114 -509
c96 -22 133 -26 290 -26 99 -1 204 1 232 4 31 3 54 1 55 -5 2 -5 -26 -25 -62
-43 -118 -59 -272 -62 -497 -10 -93 21 -94 22 -129 71 -26 37 -31 48 -18 43
11 -4 69 -19 129 -34z"/>
</g>
</svg>
