<svg width="191" height="207" viewBox="0 0 191 207" fill="none" xmlns="http://www.w3.org/2000/svg">
<path d="M48.7043 30C48.5043 20.9 41.3043 13.1 32.5043 12.6C29.5043 12.4 26.7043 13.2 24.3043 14.5L7.9043 24C10.3043 22.6 13.1043 21.9 16.1043 22.1C24.9043 22.6 32.2043 30.4 32.3043 39.5L33.0043 80.9L49.4043 71.4L48.7043 30Z" fill="#07CD99" stroke="#11192F" stroke-width="0.45" stroke-miterlimit="10" stroke-linecap="round" stroke-linejoin="round"/>
<path d="M55.9043 105.6L72.3043 96.1L129.204 157L112.804 166.6L55.9043 105.6Z" fill="#07CD99" stroke="#11192F" stroke-width="0.45" stroke-miterlimit="10" stroke-linecap="round" stroke-linejoin="round"/>
<path d="M111.504 92C115.704 92.2 119.804 94.2 122.904 97.4C125.904 100.7 127.704 105 127.804 109.4C127.904 116.1 124.104 121.9 118.204 124.2C116.204 124.9 114.204 125.3 112.104 125.1C107.904 124.9 103.804 123 100.704 119.6C96.1042 114.6 94.6042 107.4 96.9042 101.3C99.3042 95.4 105.104 91.6 111.504 92Z" fill="#08FDD6" stroke="#11192F" stroke-width="0.45" stroke-miterlimit="10"/>
<path d="M144.204 100.7C144.204 100.4 144.204 100.2 144.204 99.9C144.204 99.5 144.204 99.2 144.204 98.9C144.204 98.8 144.204 98.6 144.204 98.5C144.204 98.4 144.204 98.2 144.204 98.1C144.204 98 144.204 97.9 144.204 97.7C144.204 97.4 144.104 97.2 144.104 96.9C144.104 96.8 144.104 96.7 144.004 96.6V96.5C143.904 96 143.804 95.6 143.604 95.1C143.404 94.5 143.204 94 143.004 93.5V93.4C143.004 93.3 142.904 93.2 142.904 93.1C142.704 92.6 142.504 92.2 142.204 91.7C142.104 91.5 142.004 91.3 141.904 91.1C141.704 90.7 141.404 90.3 141.204 90C141.104 89.9 141.104 89.8 141.004 89.7C140.904 89.6 140.904 89.5 140.804 89.5L140.704 89.4C140.304 88.9 140.004 88.5 139.504 88C139.104 87.5 138.604 87.1 138.104 86.7L138.004 86.6C137.904 86.5 137.704 86.4 137.604 86.3C137.304 86.1 137.104 85.9 136.804 85.7C136.704 85.6 136.704 85.6 136.604 85.5C136.404 85.4 136.304 85.3 136.104 85.2C135.904 85.1 135.804 85 135.604 84.9C135.504 84.9 135.504 84.8 135.404 84.8C135.104 84.6 134.704 84.4 134.404 84.3C134.404 84.3 134.304 84.3 134.304 84.2C134.004 84 133.604 83.9 133.304 83.7C133.204 83.7 133.104 83.6 133.004 83.6C132.904 83.6 132.804 83.5 132.704 83.5C132.604 83.5 132.404 83.4 132.304 83.4C132.004 83.3 131.804 83.2 131.504 83.2H131.404C131.104 83.1 130.704 83 130.404 83C130.304 83 130.204 83 130.104 82.9C130.004 82.9 129.904 82.9 129.804 82.9C129.704 82.9 129.604 82.9 129.504 82.8C129.204 82.8 128.804 82.7 128.504 82.7C128.504 82.7 128.504 82.7 128.404 82.7C128.104 82.7 127.704 82.7 127.404 82.7C127.204 82.7 127.004 82.7 126.804 82.7C126.604 82.7 126.504 82.7 126.304 82.7C125.904 82.7 125.504 82.8 125.204 82.8C125.104 82.8 125.104 82.8 125.104 82.8C124.804 82.9 124.404 82.9 124.104 83H124.004C123.904 83 123.904 83 123.804 83.1C123.304 83.2 122.904 83.4 122.404 83.5H122.304C122.104 83.6 121.904 83.7 121.604 83.8C121.504 83.8 121.404 83.9 121.304 83.9C121.004 84.1 120.704 84.2 120.404 84.4L104.004 93.9C104.304 93.7 104.604 93.6 104.904 93.4C105.004 93.4 105.104 93.3 105.204 93.3C105.404 93.2 105.604 93.1 105.904 93H106.004C106.404 92.8 106.904 92.7 107.404 92.5C107.504 92.5 107.604 92.4 107.704 92.4C108.004 92.3 108.404 92.2 108.704 92.2C108.804 92.2 108.804 92.2 108.904 92.2C109.304 92.1 109.704 92.1 110.004 92.1C110.204 92.1 110.304 92.1 110.504 92.1C110.704 92.1 110.904 92.1 111.104 92.1C111.504 92.1 111.804 92.1 112.204 92.1C112.704 92.1 113.204 92.2 113.604 92.2C113.704 92.2 113.804 92.2 113.904 92.2C114.404 92.3 114.804 92.4 115.304 92.5H115.404C115.804 92.6 116.204 92.7 116.604 92.9C116.704 92.9 116.804 93 116.904 93C117.304 93.2 117.804 93.3 118.204 93.6C118.204 93.6 118.304 93.6 118.304 93.7C118.704 93.9 119.104 94.1 119.504 94.3C119.704 94.4 119.804 94.5 120.004 94.6C120.304 94.8 120.504 94.9 120.704 95.1C121.004 95.3 121.204 95.5 121.504 95.7C121.704 95.8 121.904 96 122.004 96.1C122.504 96.5 122.904 97 123.404 97.4C123.804 97.8 124.204 98.3 124.604 98.8C124.804 99 124.904 99.2 125.104 99.5C125.404 99.9 125.604 100.2 125.804 100.6C125.904 100.8 126.004 101 126.104 101.2C126.304 101.6 126.604 102.1 126.804 102.6C126.904 102.7 126.904 102.9 127.004 103C127.204 103.5 127.404 104.1 127.604 104.6C127.804 105.1 127.904 105.6 128.004 106.1C128.004 106.2 128.004 106.3 128.104 106.4C128.204 106.8 128.204 107.2 128.304 107.6C128.304 107.7 128.304 107.9 128.304 108C128.304 108.5 128.404 109 128.404 109.4C128.404 109.7 128.404 110 128.404 110.3C128.404 110.4 128.404 110.4 128.404 110.5C128.404 110.9 128.404 111.2 128.304 111.6C128.304 111.7 128.304 111.8 128.304 111.9C128.304 112.1 128.204 112.4 128.204 112.6C128.204 112.8 128.104 112.9 128.104 113.1C128.104 113.3 128.004 113.5 128.004 113.7C128.004 113.9 127.904 114.1 127.804 114.3C127.804 114.4 127.704 114.6 127.704 114.7C127.604 115 127.504 115.4 127.304 115.7C127.304 115.8 127.304 115.8 127.204 115.8C127.104 116.1 127.004 116.4 126.804 116.7C126.804 116.8 126.704 116.9 126.704 117C126.604 117.3 126.404 117.6 126.204 117.9C126.104 118 126.104 118.1 126.004 118.2C125.704 118.6 125.504 119 125.204 119.4C125.104 119.5 125.104 119.6 125.004 119.6C124.804 119.9 124.604 120.1 124.304 120.4C124.204 120.5 124.204 120.6 124.104 120.6C123.804 120.9 123.504 121.2 123.204 121.5C123.104 121.6 123.104 121.6 123.004 121.7C122.704 121.9 122.504 122.1 122.204 122.4C122.104 122.5 122.004 122.5 121.904 122.6C121.604 122.8 121.204 123.1 120.804 123.3L137.204 113.8C137.604 113.6 137.904 113.3 138.304 113.1C138.404 113 138.504 113 138.604 112.9C138.904 112.7 139.204 112.5 139.404 112.2C139.504 112.1 139.504 112.1 139.604 112C139.904 111.7 140.204 111.4 140.504 111.1C140.604 111 140.604 110.9 140.704 110.9C140.904 110.6 141.104 110.4 141.404 110.1C141.404 110 141.504 110 141.504 109.9C141.504 109.9 141.504 109.8 141.604 109.8C141.904 109.4 142.204 109 142.404 108.6C142.404 108.6 142.404 108.5 142.504 108.5C142.504 108.4 142.604 108.4 142.604 108.3C142.804 108 142.904 107.7 143.104 107.4C143.104 107.3 143.204 107.3 143.204 107.2V107.1C143.304 106.8 143.504 106.5 143.604 106.2C143.604 106.2 143.604 106.1 143.704 106.1C143.804 105.8 143.904 105.4 144.104 105.1C144.104 105 144.204 104.8 144.204 104.7C144.304 104.5 144.304 104.3 144.404 104.1C144.404 103.9 144.504 103.8 144.504 103.6C144.504 103.4 144.604 103.3 144.604 103.1C144.604 102.9 144.704 102.6 144.704 102.4C144.704 102.3 144.704 102.2 144.704 102.1C144.704 101.8 144.804 101.4 144.804 101.1C144.204 100.9 144.204 100.8 144.204 100.7Z" fill="#07CD99" stroke="#11192F" stroke-width="0.45" stroke-miterlimit="10" stroke-linecap="round" stroke-linejoin="round"/>
<path d="M110.804 50.5L127.304 40.9L72.3043 96.1L55.9043 105.6L110.804 50.5Z" fill="#07CD99" stroke="#11192F" stroke-width="0.45" stroke-miterlimit="10" stroke-linecap="round" stroke-linejoin="round"/>
<path d="M190.704 135.7C190.704 135.6 190.704 135.4 190.704 135.3C190.704 135.2 190.704 135 190.704 134.9C190.704 134.7 190.704 134.5 190.604 134.2C190.604 134.1 190.604 134 190.604 133.8V133.7C190.504 133.3 190.504 132.9 190.404 132.4C190.404 132.3 190.404 132.2 190.304 132.1C190.204 131.7 190.104 131.3 190.004 131C190.004 131 190.004 131 190.004 130.9C189.804 130.4 189.604 129.8 189.404 129.3C189.304 129 189.204 128.8 189.004 128.5C188.904 128.3 188.804 128.1 188.704 127.9C188.604 127.6 188.404 127.3 188.204 127.1C188.104 126.9 188.004 126.7 187.904 126.6C187.704 126.3 187.504 126 187.304 125.7C187.204 125.6 187.104 125.4 187.004 125.3C186.704 124.9 186.304 124.4 185.904 124C185.504 123.5 185.004 123.1 184.504 122.7L184.404 122.6C184.304 122.5 184.104 122.4 184.004 122.3C183.704 122.1 183.504 121.9 183.204 121.7C183.104 121.7 183.104 121.6 183.004 121.6C182.804 121.5 182.604 121.3 182.404 121.2C182.204 121.1 182.104 121 181.904 120.9L181.804 120.8C181.404 120.6 181.104 120.4 180.704 120.2C180.604 120.2 180.604 120.2 180.504 120.1C180.204 120 179.904 119.8 179.704 119.7C179.604 119.7 179.504 119.6 179.404 119.6C179.304 119.6 179.204 119.5 179.104 119.5C179.004 119.5 178.904 119.4 178.804 119.4C178.504 119.3 178.104 119.2 177.804 119.1C177.504 119 177.104 118.9 176.804 118.9C176.704 118.9 176.604 118.9 176.404 118.8C176.304 118.8 176.204 118.8 176.104 118.7C176.004 118.7 175.904 118.7 175.804 118.7C175.504 118.7 175.104 118.6 174.804 118.6C174.504 118.6 174.104 118.6 173.804 118.6C173.504 118.6 173.204 118.6 172.904 118.6H172.804C172.404 118.6 172.004 118.7 171.704 118.7C171.704 118.7 171.704 118.7 171.604 118.7C171.504 118.7 171.504 118.7 171.404 118.7C171.104 118.8 170.804 118.8 170.404 118.9C170.304 118.9 170.304 118.9 170.204 118.9C170.104 118.9 170.104 118.9 170.004 119C169.504 119.1 169.004 119.3 168.604 119.5C168.404 119.6 168.204 119.7 168.004 119.8C167.904 119.9 167.804 119.9 167.704 120C167.404 120.2 167.104 120.3 166.704 120.5L150.304 130C150.604 129.8 150.904 129.6 151.304 129.5C151.404 129.5 151.504 129.4 151.604 129.4C151.804 129.3 152.004 129.2 152.304 129.1C152.804 128.9 153.204 128.8 153.704 128.6C153.804 128.6 153.904 128.5 154.004 128.5C154.304 128.4 154.604 128.4 154.904 128.3C155.004 128.3 155.104 128.3 155.204 128.2C155.604 128.1 155.904 128.1 156.304 128.1C156.304 128.1 156.404 128.1 156.504 128.1C156.804 128.1 157.104 128.1 157.404 128.1C157.704 128.1 158.104 128.1 158.404 128.1C158.904 128.1 159.304 128.2 159.804 128.2C159.904 128.2 160.004 128.2 160.104 128.3C160.604 128.4 161.004 128.5 161.504 128.6C161.904 128.7 162.404 128.9 162.804 129C162.904 129 163.004 129.1 163.104 129.1C163.504 129.2 163.904 129.4 164.304 129.6C164.404 129.6 164.404 129.6 164.504 129.7C164.904 129.9 165.404 130.1 165.804 130.4C166.004 130.5 166.104 130.6 166.304 130.7C166.604 130.9 166.804 131 167.104 131.2C167.404 131.4 167.604 131.6 167.904 131.8C168.104 131.9 168.304 132.1 168.504 132.3C169.004 132.7 169.504 133.2 169.904 133.6C170.304 134 170.604 134.4 171.004 134.9C171.104 135 171.204 135.2 171.304 135.3C171.504 135.6 171.704 135.9 171.904 136.2C172.004 136.4 172.104 136.6 172.204 136.8C172.404 137.1 172.504 137.3 172.704 137.6C172.804 137.8 172.904 138 173.004 138.2C173.104 138.5 173.304 138.7 173.404 139C173.604 139.5 173.804 140.1 174.004 140.6C174.104 141 174.204 141.4 174.304 141.8C174.304 141.9 174.404 142 174.404 142.1C174.504 142.6 174.604 143 174.604 143.5C174.604 143.6 174.604 143.7 174.604 143.9C174.604 144.3 174.704 144.6 174.704 145C174.704 145.1 174.704 145.3 174.704 145.4C174.704 145.9 174.704 146.3 174.704 146.8C174.704 147.3 174.604 147.7 174.604 148.1C174.604 148.2 174.604 148.3 174.604 148.4C174.504 148.8 174.504 149.2 174.404 149.6V149.7C174.304 150.1 174.204 150.6 174.004 151C174.004 151.1 173.904 151.3 173.904 151.4C173.804 151.7 173.704 152 173.504 152.3C173.404 152.4 173.404 152.6 173.304 152.7C173.204 153 173.004 153.3 172.904 153.5C172.804 153.7 172.704 153.8 172.604 154C172.504 154.2 172.404 154.3 172.304 154.5C172.104 154.8 171.904 155.1 171.704 155.4C171.404 155.8 171.204 156.1 170.904 156.4L124.604 202.3L141.004 192.8L186.704 146.9C186.904 146.6 187.204 146.3 187.404 146C187.404 145.9 187.504 145.9 187.504 145.8C187.704 145.5 187.904 145.2 188.104 144.9C188.204 144.8 188.304 144.6 188.404 144.5C188.404 144.5 188.404 144.4 188.504 144.4C188.604 144.2 188.704 144.1 188.804 143.9C188.904 143.7 189.004 143.5 189.104 143.3C189.104 143.2 189.204 143.2 189.204 143.1C189.304 143 189.304 142.8 189.404 142.7C189.504 142.5 189.504 142.4 189.604 142.2C189.704 142.1 189.704 141.9 189.804 141.7C189.804 141.6 189.904 141.5 189.904 141.3C189.904 141.2 190.004 141.1 190.004 141.1C190.104 140.8 190.204 140.4 190.304 140.1V140C190.404 139.7 190.404 139.4 190.504 139.1C190.504 139 190.504 138.9 190.504 138.7C190.504 138.6 190.504 138.5 190.504 138.4C190.504 138.3 190.504 138.2 190.504 138.1C190.504 137.8 190.604 137.4 190.604 137.1C190.604 136.7 190.604 136.4 190.604 136C190.704 135.9 190.704 135.8 190.704 135.7Z" fill="#07CD99" stroke="#11192F" stroke-width="0.45" stroke-miterlimit="10" stroke-linecap="round" stroke-linejoin="round"/>
<path d="M189.604 69.6C189.604 69.4 189.604 69.3 189.604 69.1C189.604 69 189.604 68.9 189.604 68.7C189.604 68.6 189.604 68.5 189.604 68.5C189.604 68.1 189.604 67.8 189.504 67.4V67.3C189.504 67 189.404 66.6 189.404 66.3C189.404 66.2 189.404 66.1 189.404 66C189.404 65.8 189.304 65.7 189.304 65.5C189.304 65.3 189.204 65.2 189.204 65C189.204 64.9 189.104 64.7 189.104 64.6C189.004 64.4 189.004 64.2 188.904 63.9C188.904 63.8 188.804 63.6 188.804 63.5C188.804 63.4 188.704 63.3 188.704 63.2C188.604 62.9 188.504 62.5 188.304 62.2C188.204 62.1 188.204 61.9 188.204 61.8C188.204 61.7 188.104 61.6 188.104 61.6C187.904 61.2 187.704 60.7 187.504 60.3C187.404 60.2 187.404 60.1 187.304 59.9C187.004 59.4 186.704 58.8 186.304 58.3C186.304 58.3 186.304 58.2 186.204 58.2L186.104 58.1C185.904 57.8 185.604 57.4 185.304 57.1L137.904 6.3C137.504 5.8 137.004 5.4 136.504 5L136.404 4.9C136.304 4.8 136.104 4.7 136.004 4.6C135.704 4.4 135.404 4.2 135.204 4C135.104 4 135.104 3.9 135.004 3.9C134.804 3.7 134.504 3.6 134.304 3.5C134.204 3.4 134.004 3.3 133.904 3.2C133.904 3.2 133.804 3.2 133.804 3.1C133.404 2.9 133.104 2.7 132.704 2.5H132.604C132.504 2.5 132.404 2.4 132.404 2.4C132.204 2.3 131.904 2.2 131.704 2.1C131.604 2.1 131.504 2 131.304 2C131.204 2 131.104 1.9 131.004 1.9C130.904 1.9 130.804 1.8 130.704 1.8C130.404 1.7 130.004 1.6 129.704 1.5C129.704 1.5 129.704 1.5 129.604 1.5C129.304 1.4 129.004 1.4 128.704 1.3C128.604 1.3 128.404 1.3 128.304 1.2C128.204 1.2 128.104 1.2 128.004 1.1C127.904 1.1 127.804 1.1 127.704 1.1C127.404 1.1 127.004 1 126.704 1C126.404 1 126.004 1 125.704 1C125.404 1 125.104 1 124.804 1C124.704 1 124.704 1 124.604 1C124.204 1 123.804 1.1 123.504 1.1C123.504 1.1 123.504 1.1 123.404 1.1C123.304 1.1 123.304 1.1 123.204 1.1C122.904 1.2 122.604 1.2 122.204 1.3C122.104 1.3 122.104 1.3 122.004 1.3C121.904 1.3 121.904 1.3 121.804 1.4C121.304 1.5 120.804 1.7 120.404 1.9C120.204 2 120.004 2.1 119.704 2.2C119.604 2.2 119.504 2.3 119.404 2.3C119.104 2.5 118.804 2.6 118.404 2.8L102.004 12.3C102.304 12.1 102.604 11.9 103.004 11.8C103.104 11.8 103.204 11.7 103.204 11.7C103.404 11.6 103.704 11.5 103.904 11.4C104.404 11.2 104.904 11.1 105.304 10.9C105.404 10.9 105.504 10.8 105.604 10.8C105.904 10.7 106.204 10.7 106.604 10.6C106.704 10.6 106.804 10.6 106.904 10.5C107.304 10.4 107.704 10.4 108.004 10.4C108.104 10.4 108.104 10.4 108.204 10.4C108.504 10.4 108.804 10.4 109.104 10.4C109.404 10.4 109.804 10.4 110.104 10.4C110.604 10.4 111.004 10.5 111.504 10.5C111.604 10.5 111.704 10.5 111.804 10.6C112.204 10.7 112.704 10.8 113.104 10.9C113.104 10.9 113.104 10.9 113.204 10.9C113.604 11 114.104 11.1 114.504 11.3C114.604 11.3 114.704 11.4 114.804 11.4C115.204 11.5 115.504 11.7 115.904 11.9C116.004 11.9 116.104 12 116.104 12C116.504 12.2 117.004 12.4 117.404 12.7C117.504 12.8 117.704 12.9 117.804 13C118.104 13.2 118.404 13.4 118.604 13.5C118.904 13.7 119.204 13.9 119.404 14.1C119.604 14.2 119.804 14.4 119.904 14.5C120.404 14.9 120.804 15.3 121.204 15.8L168.604 66.6C168.904 67 169.204 67.4 169.504 67.8C169.904 68.3 170.204 68.9 170.504 69.4C170.604 69.5 170.604 69.6 170.704 69.8C170.904 70.2 171.104 70.7 171.304 71.1C171.404 71.3 171.504 71.5 171.604 71.7C171.704 72 171.804 72.4 172.004 72.7C172.104 72.9 172.204 73.2 172.204 73.4C172.304 73.6 172.304 73.8 172.404 74.1C172.504 74.4 172.504 74.7 172.604 75C172.604 75.2 172.704 75.3 172.704 75.5C172.804 75.9 172.804 76.3 172.904 76.7V76.8C172.904 77.3 172.904 77.7 172.904 78.2C172.904 78.3 172.904 78.4 172.904 78.6C172.904 79 172.904 79.4 172.804 79.7C172.804 79.8 172.804 79.9 172.804 79.9C172.804 80.3 172.704 80.8 172.604 81.2C172.604 81.3 172.604 81.4 172.504 81.5C172.404 81.9 172.304 82.2 172.204 82.6C172.204 82.7 172.104 82.8 172.104 82.9C172.004 83.3 171.804 83.8 171.704 84.2C171.704 84.3 171.604 84.4 171.604 84.5C171.504 84.8 171.304 85.2 171.204 85.5C171.104 85.7 171.004 85.9 170.904 86C170.804 86.2 170.604 86.5 170.504 86.7C170.304 87 170.104 87.3 169.904 87.6C169.804 87.8 169.704 87.9 169.504 88.1C169.104 88.6 168.804 89 168.304 89.4C167.404 90.3 166.404 91.1 165.304 91.7L181.704 82.2C182.804 81.6 183.804 80.8 184.704 79.9C185.104 79.5 185.504 79 185.904 78.6L186.004 78.5C186.104 78.4 186.204 78.3 186.304 78.1C186.504 77.8 186.704 77.5 186.904 77.2C186.904 77.1 187.004 77.1 187.004 77C187.104 76.8 187.204 76.7 187.304 76.5C187.404 76.3 187.504 76.2 187.604 76C187.604 75.9 187.704 75.9 187.704 75.8C187.804 75.5 187.904 75.3 188.004 75C188.004 74.9 188.104 74.8 188.104 74.7C188.104 74.7 188.104 74.7 188.104 74.6C188.204 74.3 188.404 73.9 188.504 73.5C188.504 73.4 188.504 73.4 188.504 73.3C188.504 73.2 188.604 73.1 188.604 73C188.704 72.8 188.704 72.6 188.804 72.4C188.804 72.2 188.904 72.1 188.904 71.9C188.904 71.8 188.904 71.7 189.004 71.6C189.004 71.5 189.004 71.5 189.004 71.4C189.104 71.1 189.104 70.7 189.104 70.4V70.3C189.104 70.2 189.104 70.1 189.104 70.1C189.504 70 189.604 69.8 189.604 69.6Z" fill="#07CD99" stroke="#11192F" stroke-width="0.45" stroke-miterlimit="10" stroke-linecap="round" stroke-linejoin="round"/>
<path d="M158.004 128.1C162.104 128.3 166.204 130.2 169.404 133.5C175.504 140 175.904 150.1 170.404 156.3L124.604 202.3C121.504 205.3 117.504 206.7 113.404 206.5C109.304 206.3 105.204 204.5 102.104 201.1L33.7039 127.8L34.4039 169.3C34.6039 178.4 27.5039 185.5 18.7039 185C9.90394 184.5 2.60393 176.7 2.50393 167.6L0.303929 37.9C0.103929 28.8 7.20393 21.7 16.0039 22.2C24.8039 22.7 32.1039 30.5 32.2039 39.6L32.9039 81L98.9039 14.8C102.004 11.8 106.004 10.4 110.104 10.6C114.204 10.8 118.304 12.6 121.404 16L168.804 66.8C174.604 73.6 174.504 83.6 168.604 89.6C165.504 92.7 161.504 94.1 157.404 93.9C153.604 93.7 149.704 92.1 146.704 89.1L110.804 50.6L55.9039 105.7L112.804 166.6L147.504 131.8C150.404 129.1 154.204 127.9 158.004 128.1Z" fill="#08FDD6" stroke="#11192F" stroke-width="0.45" stroke-miterlimit="10"/>
</svg>
